<svg aria-hidden="true" style="position: absolute; width: 0; height: 0; overflow: hidden;" version="1.1" xmlns="http://www.w3.org/2000/svg" xmlns:xlink="http://www.w3.org/1999/xlink">
  <defs>
    <symbol id="btstrp" viewBox="0 0 32 32">
      <path fill="currentColor" d="M12.75 14.25v-4.934h3.56c1.946 0 3.084 0.914 3.084 2.474 0 1.604-1.208 2.46-3.528 2.46h-3.116zM12.75 21.774h3.796c2.368 0 3.62-0.96 3.62-2.754 0-1.77-1.3-2.696-3.772-2.696h-3.644v5.45z"></path>
      <path fill="currentColor" d="M8.004 0c-2.122 0-4.157 0.843-5.657 2.343s-2.343 3.535-2.343 5.657v16c0 2.122 0.843 4.157 2.343 5.657s3.535 2.343 5.657 2.343h16c2.122 0 4.157-0.843 5.657-2.343s2.343-3.535 2.343-5.657v-16c0-2.122-0.843-4.157-2.343-5.657s-3.535-2.343-5.657-2.343h-16zM10.124 24v-16.91h6.798c3.174 0 5.086 1.618 5.086 4.22 0 1.768-1.3 3.35-2.966 3.632v0.2c2.286 0.234 3.808 1.862 3.808 4.066 0 2.976-2.168 4.792-5.776 4.792h-6.95z"></path>
    </symbol>
  </defs>
</svg>
